<svg width="130" height="37" viewBox="0 0 130 37" fill="none" xmlns="http://www.w3.org/2000/svg">
<circle cx="14.5" cy="18.5" r="14.5" fill="#2F1893"/>
<path d="M18.6427 25C18.6427 19.5327 21.6967 11 18.6427 11C15.5887 11 13.0437 25 10.2442 25C7.44473 25 10.2442 11 10.2442 11" stroke="white" stroke-width="2"/>
<path d="M16 27.5C16 28.9443 17.1882 30 18.5 30C19.8118 30 21 28.9443 21 27.5C21 26.0557 19.8118 25 18.5 25C17.1882 25 16 26.0557 16 27.5Z" stroke="white" stroke-width="2"/>
<path d="M10.5 12C9.11929 12 8 10.8807 8 9.5C8 8.11929 9.11929 7 10.5 7C11.8807 7 13 8.11929 13 9.5C13 10.8807 11.8807 12 10.5 12Z" stroke="white" stroke-width="2"/>
<path d="M39.1942 21.624H43.2262V24H36.1162V11.364H39.1942V21.624ZM44.0823 18.96C44.0823 17.928 44.2743 17.022 44.6583 16.242C45.0543 15.462 45.5883 14.862 46.2603 14.442C46.9323 14.022 47.6823 13.812 48.5103 13.812C49.2183 13.812 49.8363 13.956 50.3643 14.244C50.9043 14.532 51.3183 14.91 51.6063 15.378V13.956H54.6843V24H51.6063V22.578C51.3063 23.046 50.8863 23.424 50.3463 23.712C49.8183 24 49.2003 24.144 48.4923 24.144C47.6763 24.144 46.9323 23.934 46.2603 23.514C45.5883 23.082 45.0543 22.476 44.6583 21.696C44.2743 20.904 44.0823 19.992 44.0823 18.96ZM51.6063 18.978C51.6063 18.21 51.3903 17.604 50.9583 17.16C50.5383 16.716 50.0223 16.494 49.4103 16.494C48.7983 16.494 48.2763 16.716 47.8443 17.16C47.4243 17.592 47.2143 18.192 47.2143 18.96C47.2143 19.728 47.4243 20.34 47.8443 20.796C48.2763 21.24 48.7983 21.462 49.4103 21.462C50.0223 21.462 50.5383 21.24 50.9583 20.796C51.3903 20.352 51.6063 19.746 51.6063 18.978ZM63.0311 13.848C64.2071 13.848 65.1431 14.232 65.8391 15C66.5471 15.756 66.9011 16.8 66.9011 18.132V24H63.8411V18.546C63.8411 17.874 63.6671 17.352 63.3191 16.98C62.9711 16.608 62.5031 16.422 61.9151 16.422C61.3271 16.422 60.8591 16.608 60.5111 16.98C60.1631 17.352 59.9891 17.874 59.9891 18.546V24H56.9111V13.956H59.9891V15.288C60.3011 14.844 60.7211 14.496 61.2491 14.244C61.7771 13.98 62.3711 13.848 63.0311 13.848ZM68.428 18.96C68.428 17.928 68.62 17.022 69.004 16.242C69.4 15.462 69.934 14.862 70.606 14.442C71.278 14.022 72.028 13.812 72.856 13.812C73.516 13.812 74.116 13.95 74.656 14.226C75.208 14.502 75.64 14.874 75.952 15.342V10.68H79.03V24H75.952V22.56C75.664 23.04 75.25 23.424 74.71 23.712C74.182 24 73.564 24.144 72.856 24.144C72.028 24.144 71.278 23.934 70.606 23.514C69.934 23.082 69.4 22.476 69.004 21.696C68.62 20.904 68.428 19.992 68.428 18.96ZM75.952 18.978C75.952 18.21 75.736 17.604 75.304 17.16C74.884 16.716 74.368 16.494 73.756 16.494C73.144 16.494 72.622 16.716 72.19 17.16C71.77 17.592 71.56 18.192 71.56 18.96C71.56 19.728 71.77 20.34 72.19 20.796C72.622 21.24 73.144 21.462 73.756 21.462C74.368 21.462 74.884 21.24 75.304 20.796C75.736 20.352 75.952 19.746 75.952 18.978ZM82.8048 12.912C82.2648 12.912 81.8208 12.756 81.4728 12.444C81.1368 12.12 80.9688 11.724 80.9688 11.256C80.9688 10.776 81.1368 10.38 81.4728 10.068C81.8208 9.74403 82.2648 9.58203 82.8048 9.58203C83.3328 9.58203 83.7648 9.74403 84.1008 10.068C84.4488 10.38 84.6228 10.776 84.6228 11.256C84.6228 11.724 84.4488 12.12 84.1008 12.444C83.7648 12.756 83.3328 12.912 82.8048 12.912ZM84.3348 13.956V24H81.2568V13.956H84.3348ZM92.6854 13.848C93.8614 13.848 94.7974 14.232 95.4934 15C96.2014 15.756 96.5554 16.8 96.5554 18.132V24H93.4954V18.546C93.4954 17.874 93.3214 17.352 92.9734 16.98C92.6254 16.608 92.1574 16.422 91.5694 16.422C90.9814 16.422 90.5134 16.608 90.1654 16.98C89.8174 17.352 89.6434 17.874 89.6434 18.546V24H86.5654V13.956H89.6434V15.288C89.9554 14.844 90.3754 14.496 90.9034 14.244C91.4314 13.98 92.0254 13.848 92.6854 13.848ZM102.51 13.812C103.218 13.812 103.836 13.956 104.364 14.244C104.904 14.532 105.318 14.91 105.606 15.378V13.956H108.684V23.982C108.684 24.906 108.498 25.74 108.126 26.484C107.766 27.24 107.208 27.84 106.452 28.284C105.708 28.728 104.778 28.95 103.662 28.95C102.174 28.95 100.968 28.596 100.044 27.888C99.1203 27.192 98.5923 26.244 98.4603 25.044H101.502C101.598 25.428 101.826 25.728 102.186 25.944C102.546 26.172 102.99 26.286 103.518 26.286C104.154 26.286 104.658 26.1 105.03 25.728C105.414 25.368 105.606 24.786 105.606 23.982V22.56C105.306 23.028 104.892 23.412 104.364 23.712C103.836 24 103.218 24.144 102.51 24.144C101.682 24.144 100.932 23.934 100.26 23.514C99.5883 23.082 99.0543 22.476 98.6583 21.696C98.2743 20.904 98.0823 19.992 98.0823 18.96C98.0823 17.928 98.2743 17.022 98.6583 16.242C99.0543 15.462 99.5883 14.862 100.26 14.442C100.932 14.022 101.682 13.812 102.51 13.812ZM105.606 18.978C105.606 18.21 105.39 17.604 104.958 17.16C104.538 16.716 104.022 16.494 103.41 16.494C102.798 16.494 102.276 16.716 101.844 17.16C101.424 17.592 101.214 18.192 101.214 18.96C101.214 19.728 101.424 20.34 101.844 20.796C102.276 21.24 102.798 21.462 103.41 21.462C104.022 21.462 104.538 21.24 104.958 20.796C105.39 20.352 105.606 19.746 105.606 18.978ZM112.459 12.912C111.919 12.912 111.475 12.756 111.127 12.444C110.791 12.12 110.623 11.724 110.623 11.256C110.623 10.776 110.791 10.38 111.127 10.068C111.475 9.74403 111.919 9.58203 112.459 9.58203C112.987 9.58203 113.419 9.74403 113.755 10.068C114.103 10.38 114.277 10.776 114.277 11.256C114.277 11.724 114.103 12.12 113.755 12.444C113.419 12.756 112.987 12.912 112.459 12.912ZM113.989 13.956V24H110.911V13.956H113.989ZM122.34 13.848C123.516 13.848 124.452 14.232 125.148 15C125.856 15.756 126.21 16.8 126.21 18.132V24H123.15V18.546C123.15 17.874 122.976 17.352 122.628 16.98C122.28 16.608 121.812 16.422 121.224 16.422C120.636 16.422 120.168 16.608 119.82 16.98C119.472 17.352 119.298 17.874 119.298 18.546V24H116.22V13.956H119.298V15.288C119.61 14.844 120.03 14.496 120.558 14.244C121.086 13.98 121.68 13.848 122.34 13.848Z" fill="#2F1893"/>
</svg>
